<?xml version="1.0" encoding="utf-8"?>
<!-- Generator: Adobe Illustrator 16.0.0, SVG Export Plug-In . SVG Version: 6.00 Build 0)  -->
<!DOCTYPE svg PUBLIC "-//W3C//DTD SVG 1.1//EN" "http://www.w3.org/Graphics/SVG/1.1/DTD/svg11.dtd">
<svg version="1.1" id="Layer_1" xmlns="http://www.w3.org/2000/svg" xmlns:xlink="http://www.w3.org/1999/xlink" x="0px" y="0px"
	 width="285.983px" height="285.546px" viewBox="0 0 285.983 285.546" enable-background="new 0 0 285.983 285.546"
	 xml:space="preserve">
<g>
	<g>
		<path fill="#36B2CA" d="M237.265,60.801c3.028-14.391,4.041-31.084-4.299-43.982c-9.473-14.648-28.33-20.01-44.512-14.972
			c-16.439,5.118-29.717,19.017-35.537,34.949c-5.692,15.584-0.858,34.782,11.613,45.725c0-4.714,0-9.428,0-14.143
			c-31.942,31.941-63.884,63.883-95.826,95.824c-0.036,0.036-0.073,0.073-0.109,0.109c4.714,0,9.428,0,14.143,0
			c-10.974-12.488-28.732-16.468-44.386-12.043c-16.704,4.721-29.511,18.901-35.8,34.596c-6.417,16.016-0.296,35.071,13.449,45.129
			c12.711,9.302,30.424,8.125,45.018,5.054c-4.1-4.101-8.201-8.2-12.301-12.301c-3.028,14.391-4.044,31.087,4.299,43.983
			c9.476,14.645,28.326,20.009,44.508,14.971c16.439-5.117,29.716-19.017,35.538-34.946c5.696-15.589,0.857-34.777-11.611-45.727
			c0,4.714,0,9.429,0,14.143c31.942-31.942,63.885-63.884,95.827-95.826c0.036-0.036,0.073-0.073,0.109-0.109
			c-4.714,0-9.429,0-14.143,0c10.96,12.496,28.737,16.469,44.383,12.048c16.704-4.721,29.51-18.9,35.8-34.595
			c6.419-16.016,0.3-35.072-13.446-45.13c-12.713-9.301-30.424-8.129-45.019-5.057c-12.618,2.656-7.265,21.934,5.316,19.285
			c8.238-1.734,18.495-3.021,26.38,0.95c8.698,4.381,10.614,14.776,7.973,23.258c-5.919,19.011-32.318,32.115-47.244,15.098
			c-3.597-4.1-10.479-3.664-14.143,0c-31.942,31.942-63.885,63.884-95.827,95.826c-0.036,0.037-0.073,0.073-0.109,0.109
			c-3.666,3.666-4.098,10.544,0,14.143c16.901,14.841,4.203,39.571-13.725,46.755c-8.491,3.403-18.728,1.772-23.994-6.366
			c-4.968-7.678-3.342-19.156-1.587-27.496c1.617-7.684-4.617-13.918-12.301-12.301c-8.238,1.733-18.496,3.022-26.38-0.947
			c-8.696-4.38-10.615-14.776-7.975-23.258c5.921-19.023,32.31-32.102,47.247-15.103c3.6,4.097,10.476,3.666,14.143,0
			c31.942-31.941,63.884-63.883,95.826-95.824c0.036-0.036,0.072-0.073,0.109-0.109c3.664-3.665,4.1-10.545,0-14.143
			c-16.909-14.835-4.2-39.574,13.723-46.756c8.491-3.402,18.731-1.775,23.997,6.368c4.965,7.678,3.342,19.156,1.587,27.495
			C215.333,68.066,234.61,73.419,237.265,60.801z"/>
	</g>
</g>
</svg>
