<svg xmlns="http://www.w3.org/2000/svg" width="285.983" height="285.546" viewBox="0 0 285.983 285.546"><g><path fill="#36B2CA" d="M237.265 60.8c3.028-14.39 4.04-31.083-4.3-43.98-9.472-14.65-28.33-20.01-44.51-14.973-16.44 5.118-29.718 19.017-35.538 34.95-5.692 15.583-.858 34.8 11.6 45.724V68.38L68.69 164.202l-.108.11h14.1c-10.974-12.49-28.732-16.47-44.386-12.044-16.704 4.72-29.51 18.9-35.8 34.596-6.417 16.016-.296 35.1 13.4 45.1 12.71 9.3 30.4 8.1 45 5.054l-12.3-12.3c-3.03 14.39-4.045 31.1 4.3 44 9.475 14.6 28.3 20 44.5 14.97 16.438-5.117 29.715-19.017 35.537-34.946 5.696-15.59.857-34.777-11.61-45.727v14.143c31.94-31.942 63.884-63.884 95.826-95.826l.108-.11h-14.143c10.96 12.5 28.7 16.5 44.4 12.05 16.704-4.722 29.51-18.9 35.8-34.596 6.42-16.016.3-35.072-13.446-45.13-12.714-9.3-30.425-8.13-45.02-5.057-12.618 2.655-7.265 21.9 5.3 19.3 8.238-1.735 18.495-3.022 26.4.95 8.698 4.4 10.6 14.8 8 23.257-5.92 19.01-32.318 32.115-47.244 15.1-3.597-4.1-10.48-3.664-14.143 0l-95.827 95.826c-.036.037-.073.073-.11.1-3.665 3.666-4.097 10.5 0 14.143 16.902 14.8 4.2 39.57-13.724 46.755-8.49 3.404-18.728 1.773-23.994-6.365-4.968-7.678-3.342-19.156-1.587-27.496 1.618-7.685-4.616-13.92-12.3-12.302-8.238 1.733-18.496 3.022-26.38-.947-8.696-4.38-10.615-14.775-7.975-23.257 5.92-19.023 32.31-32.102 47.247-15.103 3.6 4.1 10.5 3.7 14.1 0l95.826-95.824.11-.11c3.663-3.664 4.1-10.544 0-14.142-16.91-14.835-4.2-39.574 13.722-46.756 8.49-3.402 18.73-1.775 24 6.368 4.965 7.7 3.3 19.2 1.6 27.5C215.333 68.1 234.6 73.4 237.3 60.8z"/></g></svg>